<svg width="32" height="32" viewBox="0 0 32 32" fill="none" xmlns="http://www.w3.org/2000/svg">
<path d="M16 28.001C23 23.271 30 18.001 30 11.001C30.0026 10.081 29.8234 9.16959 29.4725 8.31912C29.1217 7.46864 28.6062 6.69592 27.9556 6.04538C27.3051 5.39485 26.5324 4.87933 25.6819 4.52849C24.8314 4.17764 23.92 3.99838 23 4.00102C21.2 4.00102 19.42 4.68102 18.05 6.05102L16 8.10102L13.95 6.05102C13.3013 5.39854 12.5301 4.88075 11.6806 4.52742C10.831 4.17408 9.92006 3.99219 9.00001 3.99219C8.07995 3.99219 7.16897 4.17408 6.31946 4.52742C5.46995 4.88075 4.69868 5.39854 4.05001 6.05102C3.39912 6.70042 2.88296 7.47202 2.53116 8.3215C2.17935 9.17097 1.99885 10.0816 2.00001 11.001C2.00001 18.001 9.00001 23.271 16 28.001Z" fill="#FF4747" stroke="white" stroke-width="2"/>
</svg>
